<?xml version="1.0" encoding="UTF-8"?>
<svg id="Layer_1" data-name="Layer 1" xmlns="http://www.w3.org/2000/svg" viewBox="0 0 544.9401 185.7879">
  <defs>
    <style>
      .cls-1 {
        fill: #635cff;
      }
    </style>
  </defs>
  <g>
    <polygon class="cls-1" points="87.4559 127.4044 87.4559 127.4044 15.6926 127.4044 35.5515 58.3834 71.4332 58.3834 61.5036 92.8939 87.4559 127.4044"/>
    <path class="cls-1" d="M169.1445,92.8934l-19.8592,69.0215h-71.759l9.9295-34.5105h35.8774l9.9295-34.5105h-35.8775l9.9294-34.5105h-35.8816l9.9294-34.5105h35.8775c17.9662,0,30.924,17.2305,25.9523,34.5099l-.0002.0006h0c17.9663,0,30.924,17.2305,25.9523,34.51Z"/>
  </g>
  <g>
    <path class="cls-1" d="M241.2202,115.9003h-43.4197V51.4813h12.2584v53.17h31.1613v11.2489Z"/>
    <path class="cls-1" d="M291.0784,97.9038c-1.7348,11.2489-13.1773,18.813-25.0292,18.813-14.3024,0-25.848-10.736-25.848-25.6638,0-15.031,11.5456-25.767,25.848-25.767,14.915,0,25.0292,9.3033,25.4386,24.0278v4.7047h-38.8221c1.2252,6.6474,6.7418,10.736,13.3835,10.736,5.1072,0,9.8079-2.4526,11.952-6.8508h13.0772ZM277.4917,84.3054c-2.044-4.3982-6.2323-7.0571-11.4425-7.0571-5.3133,0-9.911,2.6589-12.1582,7.0571h23.6007Z"/>
    <path class="cls-1" d="M344.9274,114.0608c0,12.4723-8.3794,20.2457-22.1723,20.2457h-26.0512v-11.7589h25.5417c7.7638,0,10.4205-2.5587,10.4205-9.4095v-2.8623c-4.0851,4.295-9.5016,6.441-15.1212,6.441-13.3835,0-24.0072-10.736-24.0072-25.6638,0-15.031,10.6237-25.767,24.0072-25.767,5.7227,0,11.1362,2.2492,15.2243,6.5442l.9189-6.0342h11.2393v48.2648ZM318.8732,77.0449c-7.3544,0-13.3835,5.4181-13.3835,14.0081,0,8.4868,6.029,13.9049,13.3835,13.9049,7.5606,0,13.6898-5.4181,13.6898-13.9049,0-8.59-6.1292-14.0081-13.6898-14.0081Z"/>
    <path class="cls-1" d="M387.6343,65.796h11.2393v50.1043h-11.2393l-.9189-5.7276c-4.1882,4.295-9.8079,6.5442-15.6307,6.5442-13.6898,0-24.5197-10.736-24.5197-25.6638,0-15.031,10.8299-25.767,24.5197-25.767,5.8229,0,11.3394,2.2492,15.5276,6.441l1.022-5.931ZM372.413,77.0449c-7.6637,0-13.8959,5.4181-13.8959,14.0081,0,8.4868,6.2323,13.9049,13.8959,13.9049,7.8669,0,14.1993-5.4181,14.1993-13.9049,0-8.59-6.3324-14.0081-14.1993-14.0081Z"/>
    <path class="cls-1" d="M401.9426,115.9003V51.4813h25.7449c12.1582,0,19.922,7.1573,19.922,16.5639,0,5.931-1.6346,9.9194-5.2102,12.372,6.3354,2.8653,9.3985,7.9768,9.3985,15.3405,0,12.882-9.1952,20.1425-24.6198,20.1425h-25.2354ZM414.201,62.7303v13.1886h12.1582c5.926,0,8.4795-2.5558,8.4795-6.6444,0-4.295-2.2473-6.5442-8.5826-6.5442h-12.0551ZM414.201,87.1678v17.4836h12.4645c8.7858,0,12.3614-3.2721,12.3614-8.8936,0-5.6245-3.7788-8.59-12.3614-8.59h-12.4645Z"/>
    <path class="cls-1" d="M479.7929,65.286c14.0992,0,25.7479,10.736,25.7479,25.767,0,14.9278-11.6487,25.6638-25.7479,25.6638-14.3024,0-25.8451-10.736-25.8451-25.6638,0-15.031,11.5427-25.767,25.8451-25.767ZM479.7929,104.7545c7.3574,0,13.4866-5.3179,13.4866-13.8047,0-8.3836-6.1292-13.7015-13.4866-13.7015-7.5577,0-13.6898,5.3179-13.6898,13.7015,0,8.4868,6.1321,13.8047,13.6898,13.8047Z"/>
    <path class="cls-1" d="M505.0342,77.5549v-11.7589h3.0631l1.022-10.9394h11.2393v10.9394h8.3764v11.7589h-8.3764v19.1226c0,5.4181,1.8379,7.4639,6.8449,7.4639h2.044v11.7589h-3.6787c-11.2393,0-17.4716-6.8508-17.4716-19.2228v-19.1226h-3.0631Z"/>
  </g>
</svg>